<?xml version="1.0" encoding="UTF-8" standalone="no"?>
<!-- Created with Inkscape (http://www.inkscape.org/) -->

<svg
   xmlns:dc="http://purl.org/dc/elements/1.1/"
   xmlns:cc="http://creativecommons.org/ns#"
   xmlns:rdf="http://www.w3.org/1999/02/22-rdf-syntax-ns#"
   xmlns:svg="http://www.w3.org/2000/svg"
   xmlns="http://www.w3.org/2000/svg"
   xmlns:sodipodi="http://sodipodi.sourceforge.net/DTD/sodipodi-0.dtd"
   xmlns:inkscape="http://www.inkscape.org/namespaces/inkscape"
   width="1052.3622"
   height="744.09448"
   id="svg2"
   version="1.1"
   inkscape:version="0.48.5 r10040"
   sodipodi:docname="blacklotus-4.svg">
  <defs
     id="defs4" />
  <sodipodi:namedview
     id="base"
     pagecolor="#ffffff"
     bordercolor="#666666"
     borderopacity="1.0"
     inkscape:pageopacity="0.0"
     inkscape:pageshadow="2"
     inkscape:zoom="1"
     inkscape:cx="273.8105"
     inkscape:cy="487.70083"
     inkscape:document-units="px"
     inkscape:current-layer="layer1"
     showgrid="true"
     inkscape:window-width="1366"
     inkscape:window-height="702"
     inkscape:window-x="0"
     inkscape:window-y="27"
     inkscape:window-maximized="1">
    <inkscape:grid
       type="xygrid"
       id="grid2985"
       empspacing="5"
       visible="true"
       enabled="true"
       snapvisiblegridlinesonly="false" />
  </sodipodi:namedview>
  <metadata
     id="metadata7">
    <rdf:RDF>
      <cc:Work
         rdf:about="">
        <dc:format>image/svg+xml</dc:format>
        <dc:type
           rdf:resource="http://purl.org/dc/dcmitype/StillImage" />
        <dc:title></dc:title>
      </cc:Work>
    </rdf:RDF>
  </metadata>
  <g
     inkscape:label="Livello 1"
     inkscape:groupmode="layer"
     id="layer1"
     transform="translate(0,-308.2677)">
    <g
       id="g4224"
       transform="translate(-40.0625,-14.468018)">
      <g
         id="g4221">
        <path
           style="fill:#000000;fill-opacity:1;stroke:#000000;stroke-width:0.84839195;stroke-miterlimit:4;stroke-opacity:1;stroke-dasharray:none"
           d="m 380.4375,54.53125 c -82.60844,0 -149.59375,66.95407 -149.59375,149.5625 0,2.74028 0.0725,5.45504 0.21875,8.15625 L 231,212.09375 l -36.9375,-49.3125 -0.75,0.4375 c -4.7715,8.64838 -8.74515,17.89649 -11.8125,27.6875 -24.69619,78.83054 19.16949,162.74131 98,187.4375 1.34992,0.4229 2.71143,0.83687 4.0625,1.21875 l -57.28125,18.1875 0.15625,0.8125 c 6.59497,7.35309 14.01499,14.16103 22.25,20.28125 66.30268,49.27584 160.00542,35.49019 209.28125,-30.8125 1.69747,-2.284 3.32899,-4.59311 4.875,-6.9375 l -0.59375,1.8125 -0.34375,61.625 0.84375,0.0937 c 9.02649,-4.01052 17.76651,-8.98702 26.125,-14.9375 67.29685,-47.90918 83.03418,-141.29691 35.125,-208.59375 -2.1598,-3.03382 -4.41187,-5.95817 -6.75,-8.78125 l -0.0625,0.21875 c -0.0716,-0.21891 -0.14611,-0.43779 -0.21875,-0.65625 l 3.03125,2.21875 58.4375,19.53125 0.34375,-0.78125 C 577.78497,223.01679 575.79782,213.17211 572.75,203.375 548.21105,124.49537 464.37962,80.4298 385.5,104.96875 c -3.55599,1.10625 -7.02615,2.31487 -10.4375,3.65625 l 1.25,0.90625 c -0.43628,-0.004 -0.87534,0 -1.3125,0 -0.64542,0 -1.29401,0.0231 -1.9375,0.0312 l 1.9375,-1.46875 36,-50 -0.625,-0.5625 c -9.67932,-1.967795 -19.67726,-3 -29.9375,-3 z M 375,112.09375 c 81.03752,0 146.71875,65.56781 146.71875,146.4375 0,80.86969 -65.68123,146.40625 -146.71875,146.40625 -81.03752,0 -146.71875,-65.53656 -146.71875,-146.40625 0,-80.86969 65.68123,-146.4375 146.71875,-146.4375 z m -142.78125,102.3125 c -0.0648,0.20725 -0.12357,0.41737 -0.1875,0.625 l -0.125,-0.375 0.3125,-0.25 z"
           transform="translate(0,308.2677)"
           id="path2989-5"
           inkscape:connector-curvature="0" />
      </g>
    </g>
    <g
       transform="translate(-40.0625,-14.468018)"
       id="g4234"
       style="opacity:1"
       inkscape:export-xdpi="222.31375"
       inkscape:export-ydpi="222.31375">
      <g
         id="g4236">
        <path
           inkscape:connector-curvature="0"
           id="path4238"
           transform="translate(0,308.2677)"
           d="m 380.4375,54.53125 c -82.60844,0 -149.59375,66.95407 -149.59375,149.5625 0,2.74028 0.0725,5.45504 0.21875,8.15625 L 231,212.09375 l -36.9375,-49.3125 -0.75,0.4375 c -4.7715,8.64838 -8.74515,17.89649 -11.8125,27.6875 -24.69619,78.83054 19.16949,162.74131 98,187.4375 1.34992,0.4229 2.71143,0.83687 4.0625,1.21875 l -57.28125,18.1875 0.15625,0.8125 c 6.59497,7.35309 14.01499,14.16103 22.25,20.28125 66.30268,49.27584 160.00542,35.49019 209.28125,-30.8125 1.69747,-2.284 3.32899,-4.59311 4.875,-6.9375 l -0.59375,1.8125 -0.34375,61.625 0.84375,0.0937 c 9.02649,-4.01052 17.76651,-8.98702 26.125,-14.9375 67.29685,-47.90918 83.03418,-141.29691 35.125,-208.59375 -2.1598,-3.03382 -4.41187,-5.95817 -6.75,-8.78125 l -0.0625,0.21875 c -0.0716,-0.21891 -0.14611,-0.43779 -0.21875,-0.65625 l 3.03125,2.21875 58.4375,19.53125 0.34375,-0.78125 C 577.78497,223.01679 575.79782,213.17211 572.75,203.375 548.21105,124.49537 464.37962,80.4298 385.5,104.96875 c -3.55599,1.10625 -7.02615,2.31487 -10.4375,3.65625 l 1.25,0.90625 c -0.43628,-0.004 -0.87534,0 -1.3125,0 -0.64542,0 -1.29401,0.0231 -1.9375,0.0312 l 1.9375,-1.46875 36,-50 -0.625,-0.5625 c -9.67932,-1.967795 -19.67726,-3 -29.9375,-3 z M 375,112.09375 c 81.03752,0 146.71875,65.56781 146.71875,146.4375 0,80.86969 -65.68123,146.40625 -146.71875,146.40625 -81.03752,0 -146.71875,-65.53656 -146.71875,-146.40625 0,-80.86969 65.68123,-146.4375 146.71875,-146.4375 z m -142.78125,102.3125 c -0.0648,0.20725 -0.12357,0.41737 -0.1875,0.625 l -0.125,-0.375 0.3125,-0.25 z"
           style="fill:#000000;fill-opacity:1;stroke:#000000;stroke-width:0.84839195000000001;stroke-miterlimit:4;stroke-opacity:1;stroke-dasharray:none" />
      </g>
    </g>
    <g
       id="g2995"
       transform="matrix(-0.5431791,0,0,0.55739983,539.33316,237.24932)">
      <g
         id="g2997">
        <path
           style="fill:#000000;fill-opacity:1;stroke:#000000;stroke-width:0.84839195;stroke-miterlimit:4;stroke-opacity:1;stroke-dasharray:none"
           d="m 380.4375,54.53125 c -82.60844,0 -149.59375,66.95407 -149.59375,149.5625 0,2.74028 0.0725,5.45504 0.21875,8.15625 L 231,212.09375 l -36.9375,-49.3125 -0.75,0.4375 c -4.7715,8.64838 -8.74515,17.89649 -11.8125,27.6875 -24.69619,78.83054 19.16949,162.74131 98,187.4375 1.34992,0.4229 2.71143,0.83687 4.0625,1.21875 l -57.28125,18.1875 0.15625,0.8125 c 6.59497,7.35309 14.01499,14.16103 22.25,20.28125 66.30268,49.27584 160.00542,35.49019 209.28125,-30.8125 1.69747,-2.284 3.32899,-4.59311 4.875,-6.9375 l -0.59375,1.8125 -0.34375,61.625 0.84375,0.0937 c 9.02649,-4.01052 17.76651,-8.98702 26.125,-14.9375 67.29685,-47.90918 83.03418,-141.29691 35.125,-208.59375 -2.1598,-3.03382 -4.41187,-5.95817 -6.75,-8.78125 l -0.0625,0.21875 c -0.0716,-0.21891 -0.14611,-0.43779 -0.21875,-0.65625 L 520,214.0937 l 58.4375,19.53125 0.34375,-0.78125 C 577.78497,223.01679 575.79782,213.17211 572.75,203.375 548.21105,124.49537 464.37962,80.4298 385.5,104.96875 c -3.55599,1.10625 -7.02615,2.31487 -10.4375,3.65625 l 1.25,0.90625 c -0.43628,-0.004 -0.87534,0 -1.3125,0 -0.64542,0 -1.29401,0.0231 -1.9375,0.0312 L 375,108.0937 l 36,-50 -0.625,-0.5625 c -9.67932,-1.967795 -19.67726,-3 -29.9375,-3 z M 375,112.09375 c 81.03752,0 146.71875,65.56781 146.71875,146.4375 0,80.86969 -65.68123,146.40625 -146.71875,146.40625 -81.03752,0 -146.71875,-65.53656 -146.71875,-146.40625 0,-80.86969 65.68123,-146.4375 146.71875,-146.4375 z m -142.78125,102.3125 c -0.0648,0.20725 -0.12357,0.41737 -0.1875,0.625 l -0.125,-0.375 0.3125,-0.25 z"
           transform="translate(0,308.2677)"
           id="path2999"
           inkscape:connector-curvature="0" />
      </g>
    </g>
    <g
       transform="matrix(0.19751967,0,0,0.20269085,265.32545,438.06589)"
       id="g3001">
      <g
         id="g3003">
        <path
           inkscape:connector-curvature="0"
           id="path3005"
           transform="translate(0,308.2677)"
           d="m 380.4375,54.53125 c -82.60844,0 -149.59375,66.95407 -149.59375,149.5625 0,2.74028 0.0725,5.45504 0.21875,8.15625 L 231,212.09375 l -36.9375,-49.3125 -0.75,0.4375 c -4.7715,8.64838 -8.74515,17.89649 -11.8125,27.6875 -24.69619,78.83054 19.16949,162.74131 98,187.4375 1.34992,0.4229 2.71143,0.83687 4.0625,1.21875 l -57.28125,18.1875 0.15625,0.8125 c 6.59497,7.35309 14.01499,14.16103 22.25,20.28125 66.30268,49.27584 160.00542,35.49019 209.28125,-30.8125 1.69747,-2.284 3.32899,-4.59311 4.875,-6.9375 l -0.59375,1.8125 -0.34375,61.625 0.84375,0.0937 c 9.02649,-4.01052 17.76651,-8.98702 26.125,-14.9375 67.29685,-47.90918 83.03418,-141.29691 35.125,-208.59375 -2.1598,-3.03382 -4.41187,-5.95817 -6.75,-8.78125 l -0.0625,0.21875 c -0.0716,-0.21891 -0.14611,-0.43779 -0.21875,-0.65625 L 520,214.0937 l 58.4375,19.53125 0.34375,-0.78125 C 577.78497,223.01679 575.79782,213.17211 572.75,203.375 548.21105,124.49537 464.37962,80.4298 385.5,104.96875 c -3.55599,1.10625 -7.02615,2.31487 -10.4375,3.65625 l 1.25,0.90625 c -0.43628,-0.004 -0.87534,0 -1.3125,0 -0.64542,0 -1.29401,0.0231 -1.9375,0.0312 L 375,108.0937 l 36,-50 -0.625,-0.5625 c -9.67932,-1.967795 -19.67726,-3 -29.9375,-3 z M 375,112.09375 c 81.03752,0 146.71875,65.56781 146.71875,146.4375 0,80.86969 -65.68123,146.40625 -146.71875,146.40625 -81.03752,0 -146.71875,-65.53656 -146.71875,-146.40625 0,-80.86969 65.68123,-146.4375 146.71875,-146.4375 z m -142.78125,102.3125 c -0.0648,0.20725 -0.12357,0.41737 -0.1875,0.625 l -0.125,-0.375 0.3125,-0.25 z"
           style="fill:#000000;fill-opacity:1;stroke:#000000;stroke-width:0.84839195;stroke-miterlimit:4;stroke-opacity:1;stroke-dasharray:none" />
      </g>
    </g>
  </g>
</svg>
