<?xml version="1.0" encoding="UTF-8" standalone="no"?>
<!-- Created with Inkscape (http://www.inkscape.org/) -->

<svg
   xmlns:dc="http://purl.org/dc/elements/1.1/"
   xmlns:cc="http://creativecommons.org/ns#"
   xmlns:rdf="http://www.w3.org/1999/02/22-rdf-syntax-ns#"
   xmlns:svg="http://www.w3.org/2000/svg"
   xmlns="http://www.w3.org/2000/svg"
   xmlns:sodipodi="http://sodipodi.sourceforge.net/DTD/sodipodi-0.dtd"
   xmlns:inkscape="http://www.inkscape.org/namespaces/inkscape"
   width="1052.3622"
   height="744.09448"
   id="svg2"
   version="1.1"
   inkscape:version="0.48.5 r10040"
   sodipodi:docname="blacklotus-3.svg">
  <defs
     id="defs4" />
  <sodipodi:namedview
     id="base"
     pagecolor="#ffffff"
     bordercolor="#666666"
     borderopacity="1.0"
     inkscape:pageopacity="0.0"
     inkscape:pageshadow="2"
     inkscape:zoom="1.9347938"
     inkscape:cx="484.42422"
     inkscape:cy="409.84821"
     inkscape:document-units="px"
     inkscape:current-layer="layer1"
     showgrid="true"
     inkscape:window-width="1366"
     inkscape:window-height="702"
     inkscape:window-x="0"
     inkscape:window-y="27"
     inkscape:window-maximized="1">
    <inkscape:grid
       type="xygrid"
       id="grid2985"
       empspacing="5"
       visible="true"
       enabled="true"
       snapvisiblegridlinesonly="true" />
  </sodipodi:namedview>
  <metadata
     id="metadata7">
    <rdf:RDF>
      <cc:Work
         rdf:about="">
        <dc:format>image/svg+xml</dc:format>
        <dc:type
           rdf:resource="http://purl.org/dc/dcmitype/StillImage" />
        <dc:title></dc:title>
      </cc:Work>
    </rdf:RDF>
  </metadata>
  <g
     inkscape:label="Livello 1"
     inkscape:groupmode="layer"
     id="layer1"
     transform="translate(0,-308.2677)">
    <g
       id="g3085"
       transform="matrix(0.54329153,0.83954411,-0.83954411,0.54329153,774.29387,-144.80749)">
      <path
         transform="matrix(0.74147948,0.67097016,-0.67097527,0.74148513,325.29832,78.18759)"
         d="m 540,284.09448 c 0,11.0457 -8.95431,20 -20,20 -11.04569,0 -20,-8.9543 -20,-20 0,-11.04569 8.95431,-20 20,-20 11.04569,0 20,8.95431 20,20 z"
         sodipodi:ry="20"
         sodipodi:rx="20"
         sodipodi:cy="284.09448"
         sodipodi:cx="520"
         id="path2987"
         style="fill:#000000;fill-rule:evenodd;stroke:#000000;stroke-width:1px;stroke-linecap:butt;stroke-linejoin:miter;stroke-opacity:1"
         sodipodi:type="arc" />
      <path
         sodipodi:nodetypes="cscsc"
         inkscape:connector-curvature="0"
         id="path3001"
         d="m 615.5939,562.1851 c 0,0 -11.89385,41.7453 -25.42893,57.90851 -17.6476,21.07424 -68.50761,45.8994 -68.50761,45.8994 0,0 64.74489,-9.17287 83.3372,-32.48 14.98959,-18.7908 10.59934,-71.32791 10.59934,-71.32791 z"
         style="fill:#000000;stroke:#000000;stroke-width:1.00000024px;stroke-linecap:butt;stroke-linejoin:miter;stroke-opacity:1" />
      <path
         sodipodi:nodetypes="cscsc"
         inkscape:connector-curvature="0"
         id="path3001-3"
         d="m 424.90066,713.30271 c 0,0 11.89384,-41.7453 25.42893,-57.90851 17.64759,-21.07425 68.5076,-45.89941 68.5076,-45.89941 0,0 -64.74488,9.17288 -83.33719,32.48001 -14.9896,18.7908 -10.59934,71.32791 -10.59934,71.32791 z"
         style="fill:#000000;stroke:#000000;stroke-width:1.00000024px;stroke-linecap:butt;stroke-linejoin:miter;stroke-opacity:1" />
      <path
         sodipodi:nodetypes="cscsc"
         inkscape:connector-curvature="0"
         id="path3001-6"
         d="m 595.80532,733.09002 c 0,0 -41.74518,-11.89353 -57.90828,-25.42851 -21.0741,-17.64744 -45.89886,-68.50731 -45.89886,-68.50731 0,0 9.17238,64.74487 32.47935,83.33701 18.79068,14.98948 71.32779,10.59881 71.32779,10.59881 z"
         style="fill:#000000;stroke:#000000;stroke-width:1.00000024px;stroke-linecap:butt;stroke-linejoin:miter;stroke-opacity:1" />
      <path
         sodipodi:nodetypes="cscsc"
         inkscape:connector-curvature="0"
         id="path3001-7"
         d="m 444.68925,542.39778 c 0,0 41.74518,11.89353 57.90828,25.42851 21.07409,17.64745 45.89885,68.50731 45.89885,68.50731 0,0 -9.17238,-64.74486 -32.47935,-83.33702 -18.79068,-14.98946 -71.32778,-10.5988 -71.32778,-10.5988 z"
         style="fill:#000000;stroke:#000000;stroke-width:1.00000024px;stroke-linecap:butt;stroke-linejoin:miter;stroke-opacity:1" />
      <path
         sodipodi:nodetypes="cssssssc"
         inkscape:connector-curvature="0"
         id="path3979"
         d="m 524.42949,670.26387 c 0,0 33.18212,5.61964 49.80502,4.41205 10.51324,-0.76375 20.22456,-7.29717 30.76549,-7.31374 4.71406,-0.007 9.94037,0.47724 13.76892,3.22758 2.70716,1.94478 4.73152,5.20878 5.27061,8.49823 0.76238,4.65197 0.10044,10.43032 -3.22769,13.76887 -7.4419,7.46525 -20.27423,8.33595 -30.76548,7.31374 -23.92377,-2.33098 -65.61687,-29.90673 -65.61687,-29.90673 z"
         style="fill:#000000;fill-opacity:1;stroke:#000000;stroke-width:1.00000024px;stroke-linecap:butt;stroke-linejoin:miter;stroke-opacity:1" />
      <path
         sodipodi:nodetypes="cssssssc"
         inkscape:connector-curvature="0"
         id="path3979-7"
         d="m 553.85166,636.42032 c 0,0 5.14386,-33.25917 3.69831,-49.863 -0.91424,-10.50117 -7.58612,-20.11781 -7.75365,-30.65738 -0.0749,-4.71344 0.33484,-9.94615 3.03006,-13.81372 1.90582,-2.73478 5.14051,-4.8057 8.4219,-5.39189 4.6406,-0.82899 10.42784,-0.24996 13.81374,3.02995 7.5711,7.3341 8.62548,20.15259 7.75364,30.65739 -1.98811,23.95462 -28.964,66.03865 -28.964,66.03865 z"
         style="fill:#000000;fill-opacity:1;stroke:#000000;stroke-width:1.00000024px;stroke-linecap:butt;stroke-linejoin:miter;stroke-opacity:1" />
      <path
         sodipodi:nodetypes="cssssssc"
         inkscape:connector-curvature="0"
         id="path3979-7-0"
         d="m 516.33912,600.63069 c 0,0 -33.3114,-4.79412 -49.8992,-3.17422 -10.49105,1.02452 -20.03718,7.79704 -30.57443,8.07528 -4.71244,0.12445 -9.94916,-0.2303 -13.84481,-2.88474 -2.75463,-1.87697 -4.85939,-5.08972 -5.47996,-8.36476 -0.87765,-4.63161 -0.35936,-10.42461 2.88484,-13.84476 7.25429,-7.64772 20.06105,-8.83672 30.57444,-8.07531 23.97424,1.73633 66.33912,28.26851 66.33912,28.26851 z"
         style="fill:#000000;fill-opacity:1;stroke:#000000;stroke-width:1.00000024px;stroke-linecap:butt;stroke-linejoin:miter;stroke-opacity:1" />
      <path
         sodipodi:nodetypes="cssssssc"
         inkscape:connector-curvature="0"
         id="path3979-7-0-9"
         d="m 486.01694,642.72559 c 0,0 -6.68751,32.98346 -6.01694,49.63659 0.4241,10.53237 6.64079,20.44934 6.31719,30.98528 -0.14471,4.71183 -0.79775,9.91977 -3.67022,13.65758 -2.03112,2.64306 -5.35877,4.56106 -8.66391,4.99375 -4.67417,0.61193 -10.42817,-0.23605 -13.65761,-3.67011 -7.22124,-7.67882 -7.6774,-20.53248 -6.31719,-30.98528 3.10177,-23.83602 32.00868,-64.61781 32.00868,-64.61781 z"
         style="fill:#000000;fill-opacity:1;stroke:#000000;stroke-width:1.00000024px;stroke-linecap:butt;stroke-linejoin:miter;stroke-opacity:1" />
    </g>
  </g>
</svg>
