<?xml version="1.0" encoding="UTF-8" standalone="no"?>
<!-- Created with Inkscape (http://www.inkscape.org/) -->

<svg
   xmlns:dc="http://purl.org/dc/elements/1.1/"
   xmlns:cc="http://creativecommons.org/ns#"
   xmlns:rdf="http://www.w3.org/1999/02/22-rdf-syntax-ns#"
   xmlns:svg="http://www.w3.org/2000/svg"
   xmlns="http://www.w3.org/2000/svg"
   xmlns:sodipodi="http://sodipodi.sourceforge.net/DTD/sodipodi-0.dtd"
   xmlns:inkscape="http://www.inkscape.org/namespaces/inkscape"
   width="1052.3622"
   height="744.09448"
   id="svg2"
   version="1.1"
   inkscape:version="0.48.5 r10040"
   sodipodi:docname="blacklotus-2.svg">
  <defs
     id="defs4" />
  <sodipodi:namedview
     id="base"
     pagecolor="#ffffff"
     bordercolor="#666666"
     borderopacity="1.0"
     inkscape:pageopacity="0.0"
     inkscape:pageshadow="2"
     inkscape:zoom="1.9347938"
     inkscape:cx="484.42422"
     inkscape:cy="445.91758"
     inkscape:document-units="px"
     inkscape:current-layer="layer1"
     showgrid="true"
     inkscape:window-width="1366"
     inkscape:window-height="702"
     inkscape:window-x="0"
     inkscape:window-y="27"
     inkscape:window-maximized="1">
    <inkscape:grid
       type="xygrid"
       id="grid2985"
       empspacing="5"
       visible="true"
       enabled="true"
       snapvisiblegridlinesonly="true" />
  </sodipodi:namedview>
  <metadata
     id="metadata7">
    <rdf:RDF>
      <cc:Work
         rdf:about="">
        <dc:format>image/svg+xml</dc:format>
        <dc:type
           rdf:resource="http://purl.org/dc/dcmitype/StillImage" />
        <dc:title></dc:title>
      </cc:Work>
    </rdf:RDF>
  </metadata>
  <g
     inkscape:label="Livello 1"
     inkscape:groupmode="layer"
     id="layer1"
     transform="translate(0,-308.2677)">
    <path
       sodipodi:type="arc"
       style="fill:#000000;fill-rule:evenodd;stroke:#000000;stroke-width:1px;stroke-linecap:butt;stroke-linejoin:miter;stroke-opacity:1"
       id="path2987"
       sodipodi:cx="520"
       sodipodi:cy="284.09448"
       sodipodi:rx="20"
       sodipodi:ry="20"
       d="m 540,284.09448 a 20,20 0 1 1 -40,0 20,20 0 1 1 40,0 z"
       transform="matrix(0.99999638,0,0,1.000004,0.24916326,353.64829)" />
    <path
       style="fill:#000000;stroke:#000000;stroke-width:1.00000024px;stroke-linecap:butt;stroke-linejoin:miter;stroke-opacity:1"
       d="m 540.24721,657.74399 c 0,0 19.19088,-38.93384 19.99993,-60.00024 1.05486,-27.46723 -19.99993,-80.00032 -19.99993,-80.00032 0,0 41.85243,50.24357 39.99985,80.00032 -1.49359,23.99065 -39.99985,60.00024 -39.99985,60.00024 z"
       id="path3001"
       inkscape:connector-curvature="0"
       sodipodi:nodetypes="cscsc" />
    <path
       style="fill:#000000;stroke:#000000;stroke-width:1.00000024px;stroke-linecap:butt;stroke-linejoin:miter;stroke-opacity:1"
       d="m 500.24735,617.74382 c 0,0 -19.19088,38.93384 -19.99992,60.00024 -1.05487,27.46723 19.99992,80.00032 19.99992,80.00032 0,0 -41.85243,-50.24357 -39.99985,-80.00032 1.49359,-23.99065 39.99985,-60.00024 39.99985,-60.00024 z"
       id="path3001-3"
       inkscape:connector-curvature="0"
       sodipodi:nodetypes="cscsc" />
    <path
       style="fill:#000000;stroke:#000000;stroke-width:1.00000024px;stroke-linecap:butt;stroke-linejoin:miter;stroke-opacity:1"
       d="m 500.24735,657.74398 c 0,0 38.93354,19.19103 59.99979,20.00008 27.46702,1.05488 79.99971,-20.00008 79.99971,-20.00008 0,0 -50.24319,41.85275 -79.99971,40.00016 -23.99048,-1.4936 -59.99979,-40.00016 -59.99979,-40.00016 z"
       id="path3001-6"
       inkscape:connector-curvature="0"
       sodipodi:nodetypes="cscsc" />
    <path
       style="fill:#000000;stroke:#000000;stroke-width:1.00000024px;stroke-linecap:butt;stroke-linejoin:miter;stroke-opacity:1"
       d="m 540.24721,617.74382 c 0,0 -38.93354,-19.19103 -59.99978,-20.00008 -27.46702,-1.05487 -79.99971,20.00008 -79.99971,20.00008 0,0 50.24318,-41.85275 79.99971,-40.00016 23.99047,1.49361 59.99978,40.00016 59.99978,40.00016 z"
       id="path3001-7"
       inkscape:connector-curvature="0"
       sodipodi:nodetypes="cscsc" />
    <path
       style="fill:#000000;fill-opacity:1;stroke:#000000;stroke-width:1.00000024px;stroke-linecap:butt;stroke-linejoin:miter;stroke-opacity:1"
       d="m 550.45017,656.40966 c 0,0 29.08502,-16.93206 41.07942,-28.50416 7.58591,-7.31884 10.86123,-18.55573 18.94689,-25.31841 3.61601,-3.02435 7.94057,-5.99881 12.6424,-6.33798 3.32467,-0.23982 6.96965,0.97089 9.49013,3.15223 3.56449,3.08489 6.75627,7.94698 6.33788,12.64244 -0.93555,10.49936 -10.23421,19.3854 -18.94689,25.3184 -19.86796,13.52936 -69.54983,19.04748 -69.54983,19.04748 z"
       id="path3979"
       inkscape:connector-curvature="0"
       sodipodi:nodetypes="cssssssc" />
    <path
       style="fill:#000000;fill-opacity:1;stroke:#000000;stroke-width:1.00000024px;stroke-linecap:butt;stroke-linejoin:miter;stroke-opacity:1"
       d="m 538.82257,602.38849 c 0,0 -16.93206,-29.08502 -28.50416,-41.07942 -7.31884,-7.58591 -18.55573,-10.86123 -25.31841,-18.94689 -3.02435,-3.61601 -5.99881,-7.94057 -6.33798,-12.6424 -0.23982,-3.32467 0.97089,-6.96965 3.15223,-9.49013 3.08489,-3.56449 7.94698,-6.75627 12.64244,-6.33788 10.49936,0.93555 19.3854,10.23421 25.3184,18.94689 13.52936,19.86796 19.04748,69.54983 19.04748,69.54983 z"
       id="path3979-3"
       inkscape:connector-curvature="0"
       sodipodi:nodetypes="cssssssc" />
    <path
       style="fill:#000000;fill-opacity:1;stroke:#000000;stroke-width:1.00000024px;stroke-linecap:butt;stroke-linejoin:miter;stroke-opacity:1"
       d="m 491.07942,618.85802 c 0,0 -29.08502,16.93206 -41.07942,28.50416 -7.58591,7.31884 -10.86123,18.55573 -18.94689,25.31841 -3.61601,3.02435 -7.94057,5.99881 -12.6424,6.33798 -3.32467,0.23982 -6.96965,-0.97089 -9.49013,-3.15223 -3.56449,-3.08489 -6.75627,-7.94698 -6.33788,-12.64244 0.93555,-10.49936 10.23421,-19.3854 18.94689,-25.3184 19.86796,-13.52936 69.54983,-19.04748 69.54983,-19.04748 z"
       id="path3979-6"
       inkscape:connector-curvature="0"
       sodipodi:nodetypes="cssssssc" />
    <path
       style="fill:#000000;fill-opacity:1;stroke:#000000;stroke-width:1.00000024px;stroke-linecap:butt;stroke-linejoin:miter;stroke-opacity:1"
       d="m 501.49584,666.28276 c 0,0 16.93206,29.08502 28.50416,41.07942 7.31884,7.58591 18.55573,10.86123 25.31841,18.94689 3.02435,3.61601 5.99881,7.94057 6.33798,12.6424 0.23982,3.32467 -0.97089,6.96965 -3.15223,9.49013 -3.08489,3.56449 -7.94698,6.75627 -12.64244,6.33788 -10.49936,-0.93555 -19.3854,-10.23421 -25.3184,-18.94689 -13.52936,-19.86796 -19.04748,-69.54983 -19.04748,-69.54983 z"
       id="path3979-7"
       inkscape:connector-curvature="0"
       sodipodi:nodetypes="cssssssc" />
    <path
       sodipodi:type="arc"
       style="fill:#000000;fill-opacity:1;stroke:#c0c0c0;stroke-width:1;stroke-miterlimit:4;stroke-opacity:1;stroke-dasharray:none"
       id="path3114"
       sodipodi:cx="335"
       sodipodi:cy="249.09448"
       sodipodi:rx="10"
       sodipodi:ry="10"
       d="m 345,249.09448 a 10,10 0 1 1 -0.003,-0.23229"
       transform="translate(105,308.2677)"
       sodipodi:start="0"
       sodipodi:end="6.259954"
       sodipodi:open="true" />
    <path
       sodipodi:type="arc"
       style="fill:#000000;fill-opacity:1;stroke:#c0c0c0;stroke-width:1;stroke-miterlimit:4;stroke-opacity:1;stroke-dasharray:none"
       id="path3114-5"
       sodipodi:cx="335"
       sodipodi:cy="249.09448"
       sodipodi:rx="10"
       sodipodi:ry="10"
       d="m 345,249.09448 a 10,10 0 1 1 -0.003,-0.23229"
       transform="translate(265,308.2677)"
       sodipodi:start="0"
       sodipodi:end="6.259954"
       sodipodi:open="true" />
    <path
       sodipodi:type="arc"
       style="fill:#000000;fill-opacity:1;stroke:#c0c0c0;stroke-width:1;stroke-miterlimit:4;stroke-opacity:1;stroke-dasharray:none"
       id="path3114-3"
       sodipodi:cx="335"
       sodipodi:cy="249.09448"
       sodipodi:rx="10"
       sodipodi:ry="10"
       d="m 345,249.09448 a 10,10 0 1 1 -0.003,-0.23229"
       transform="translate(105,468.2677)"
       sodipodi:start="0"
       sodipodi:end="6.259954"
       sodipodi:open="true" />
    <path
       sodipodi:type="arc"
       style="fill:#000000;fill-opacity:1;stroke:#c0c0c0;stroke-width:1;stroke-miterlimit:4;stroke-opacity:1;stroke-dasharray:none"
       id="path3114-2"
       sodipodi:cx="335"
       sodipodi:cy="249.09448"
       sodipodi:rx="10"
       sodipodi:ry="10"
       d="m 345,249.09448 a 10,10 0 1 1 -0.003,-0.23229"
       transform="translate(265,468.2677)"
       sodipodi:start="0"
       sodipodi:end="6.259954"
       sodipodi:open="true" />
  </g>
</svg>
