<?xml version="1.0" encoding="UTF-8" standalone="no"?>
<!-- Created with Inkscape (http://www.inkscape.org/) -->

<svg
   xmlns:dc="http://purl.org/dc/elements/1.1/"
   xmlns:cc="http://creativecommons.org/ns#"
   xmlns:rdf="http://www.w3.org/1999/02/22-rdf-syntax-ns#"
   xmlns:svg="http://www.w3.org/2000/svg"
   xmlns="http://www.w3.org/2000/svg"
   xmlns:sodipodi="http://sodipodi.sourceforge.net/DTD/sodipodi-0.dtd"
   xmlns:inkscape="http://www.inkscape.org/namespaces/inkscape"
   width="1052.3622"
   height="744.09448"
   id="svg2"
   version="1.1"
   inkscape:version="0.48.5 r10040"
   sodipodi:docname="blacklotus.svg">
  <defs
     id="defs4" />
  <sodipodi:namedview
     id="base"
     pagecolor="#ffffff"
     bordercolor="#666666"
     borderopacity="1.0"
     inkscape:pageopacity="0.0"
     inkscape:pageshadow="2"
     inkscape:zoom="1.9347938"
     inkscape:cx="484.42422"
     inkscape:cy="409.84821"
     inkscape:document-units="px"
     inkscape:current-layer="layer1"
     showgrid="true"
     inkscape:window-width="1366"
     inkscape:window-height="702"
     inkscape:window-x="0"
     inkscape:window-y="27"
     inkscape:window-maximized="1">
    <inkscape:grid
       type="xygrid"
       id="grid2985"
       empspacing="5"
       visible="true"
       enabled="true"
       snapvisiblegridlinesonly="true" />
  </sodipodi:namedview>
  <metadata
     id="metadata7">
    <rdf:RDF>
      <cc:Work
         rdf:about="">
        <dc:format>image/svg+xml</dc:format>
        <dc:type
           rdf:resource="http://purl.org/dc/dcmitype/StillImage" />
        <dc:title></dc:title>
      </cc:Work>
    </rdf:RDF>
  </metadata>
  <g
     inkscape:label="Livello 1"
     inkscape:groupmode="layer"
     id="layer1"
     transform="translate(0,-308.2677)">
    <g
       id="g4330"
       inkscape:export-xdpi="336.62"
       inkscape:export-ydpi="336.62">
      <path
         transform="matrix(0.99999638,0,0,1.000004,0.24916326,353.64829)"
         d="m 540,284.09448 a 20,20 0 1 1 -40,0 20,20 0 1 1 40,0 z"
         sodipodi:ry="20"
         sodipodi:rx="20"
         sodipodi:cy="284.09448"
         sodipodi:cx="520"
         id="path2987"
         style="fill:#000000;fill-rule:evenodd;stroke:#000000;stroke-width:1px;stroke-linecap:butt;stroke-linejoin:miter;stroke-opacity:1"
         sodipodi:type="arc" />
      <path
         sodipodi:nodetypes="cscsc"
         inkscape:connector-curvature="0"
         id="path3001"
         d="m 540.24721,657.74399 c 0,0 19.19088,-38.93384 19.99993,-60.00024 1.05486,-27.46723 -19.99993,-80.00032 -19.99993,-80.00032 0,0 41.85243,50.24357 39.99985,80.00032 -1.49359,23.99065 -39.99985,60.00024 -39.99985,60.00024 z"
         style="fill:#000000;stroke:#000000;stroke-width:1.00000024px;stroke-linecap:butt;stroke-linejoin:miter;stroke-opacity:1" />
      <path
         sodipodi:nodetypes="cscsc"
         inkscape:connector-curvature="0"
         id="path3001-3"
         d="m 500.24735,617.74382 c 0,0 -19.19088,38.93384 -19.99992,60.00024 -1.05487,27.46723 19.99992,80.00032 19.99992,80.00032 0,0 -41.85243,-50.24357 -39.99985,-80.00032 1.49359,-23.99065 39.99985,-60.00024 39.99985,-60.00024 z"
         style="fill:#000000;stroke:#000000;stroke-width:1.00000024px;stroke-linecap:butt;stroke-linejoin:miter;stroke-opacity:1" />
      <path
         sodipodi:nodetypes="cscsc"
         inkscape:connector-curvature="0"
         id="path3001-6"
         d="m 500.24735,657.74398 c 0,0 38.93354,19.19103 59.99979,20.00008 27.46702,1.05488 79.99971,-20.00008 79.99971,-20.00008 0,0 -50.24319,41.85275 -79.99971,40.00016 -23.99048,-1.4936 -59.99979,-40.00016 -59.99979,-40.00016 z"
         style="fill:#000000;stroke:#000000;stroke-width:1.00000024px;stroke-linecap:butt;stroke-linejoin:miter;stroke-opacity:1" />
      <path
         sodipodi:nodetypes="cscsc"
         inkscape:connector-curvature="0"
         id="path3001-7"
         d="m 540.24721,617.74382 c 0,0 -38.93354,-19.19103 -59.99978,-20.00008 -27.46702,-1.05487 -79.99971,20.00008 -79.99971,20.00008 0,0 50.24318,-41.85275 79.99971,-40.00016 23.99047,1.49361 59.99978,40.00016 59.99978,40.00016 z"
         style="fill:#000000;stroke:#000000;stroke-width:1.00000024px;stroke-linecap:butt;stroke-linejoin:miter;stroke-opacity:1" />
      <path
         sodipodi:nodetypes="cssssssc"
         inkscape:connector-curvature="0"
         id="path3979"
         d="m 560.24714,657.74398 c 0,0 22.26481,-25.23711 29.99989,-40.00016 4.89209,-9.33697 4.45829,-21.03343 9.99996,-30.00012 2.47831,-4.01002 5.64477,-8.19604 9.99997,-10.00004 3.07958,-1.27561 6.92037,-1.27561 9.99996,0 4.35519,1.804 8.9169,5.41208 9.99996,10.00004 2.4218,10.25899 -3.60171,21.62315 -9.99996,30.00012 -14.59026,19.10245 -59.99978,40.00016 -59.99978,40.00016 z"
         style="fill:#000000;fill-opacity:1;stroke:#000000;stroke-width:1.00000024px;stroke-linecap:butt;stroke-linejoin:miter;stroke-opacity:1" />
      <path
         sodipodi:nodetypes="cssssssc"
         inkscape:connector-curvature="0"
         id="path3979-7"
         d="m 540.24721,597.74374 c 0,0 -25.23692,-22.26498 -39.99986,-30.00012 -9.33689,-4.89213 -21.03327,-4.45833 -29.99989,-10.00004 -4.00999,-2.47833 -8.19598,-5.64481 -9.99996,-10.00004 -1.27561,-3.07961 -1.27561,-6.92043 0,-10.00004 1.80398,-4.35523 5.41204,-8.91696 9.99996,-10.00004 10.25891,-2.42182 21.62298,3.60175 29.99989,10.00004 19.1023,14.59037 39.99986,60.00024 39.99986,60.00024 z"
         style="fill:#000000;fill-opacity:1;stroke:#000000;stroke-width:1.00000024px;stroke-linecap:butt;stroke-linejoin:miter;stroke-opacity:1" />
      <path
         sodipodi:nodetypes="cssssssc"
         inkscape:connector-curvature="0"
         id="path3979-7-0"
         d="m 480.24743,617.74382 c 0,0 -22.26481,25.23711 -29.9999,40.00016 -4.89209,9.33697 -4.45829,21.03344 -9.99996,30.00012 -2.47831,4.01003 -5.64477,8.19604 -9.99996,10.00004 -3.07959,1.27562 -6.92038,1.27562 -9.99997,0 -4.35519,-1.804 -8.91689,-5.41208 -9.99996,-10.00004 -2.4218,-10.25899 3.60172,-21.62315 9.99996,-30.00012 14.59026,-19.10244 59.99979,-40.00016 59.99979,-40.00016 z"
         style="fill:#000000;fill-opacity:1;stroke:#000000;stroke-width:1.00000024px;stroke-linecap:butt;stroke-linejoin:miter;stroke-opacity:1" />
      <path
         sodipodi:nodetypes="cssssssc"
         inkscape:connector-curvature="0"
         id="path3979-7-0-9"
         d="m 500.24735,677.74406 c 0,0 25.23692,22.26498 39.99986,30.00012 9.33689,4.89213 21.03327,4.45833 29.99989,10.00004 4.01,2.47833 8.19598,5.64481 9.99996,10.00004 1.27561,3.07961 1.27561,6.92043 0,10.00004 -1.80398,4.35523 -5.41204,8.91697 -9.99996,10.00004 -10.25891,2.42182 -21.62298,-3.60174 -29.99989,-10.00004 -19.1023,-14.59037 -39.99986,-60.00024 -39.99986,-60.00024 z"
         style="fill:#000000;fill-opacity:1;stroke:#000000;stroke-width:1.00000024px;stroke-linecap:butt;stroke-linejoin:miter;stroke-opacity:1" />
      <path
         sodipodi:open="true"
         sodipodi:end="6.259954"
         sodipodi:start="0"
         transform="matrix(0.99999638,0,0,1.000004,185.00109,343.26662)"
         d="m 310,269.09448 a 5,5 0 1 1 -0.001,-0.11614"
         sodipodi:ry="5"
         sodipodi:rx="5"
         sodipodi:cy="269.09448"
         sodipodi:cx="305"
         id="path4037"
         style="fill:#000000;fill-opacity:1;stroke:#000000;stroke-opacity:1"
         sodipodi:type="arc" />
      <path
         sodipodi:open="true"
         sodipodi:end="6.259954"
         sodipodi:start="0"
         transform="matrix(0.99999638,0,0,1.000004,245.00109,393.26662)"
         d="m 310,269.09448 a 5,5 0 1 1 -0.001,-0.11614"
         sodipodi:ry="5"
         sodipodi:rx="5"
         sodipodi:cy="269.09448"
         sodipodi:cx="305"
         id="path4037-3"
         style="fill:#000000;fill-opacity:1;stroke:#000000;stroke-opacity:1"
         sodipodi:type="arc" />
      <path
         sodipodi:open="true"
         sodipodi:end="6.259954"
         sodipodi:start="0"
         transform="matrix(0.99999638,0,0,1.000004,190.0011,398.2666)"
         d="m 310,269.09448 a 5,5 0 1 1 -0.001,-0.11614"
         sodipodi:ry="5"
         sodipodi:rx="5"
         sodipodi:cy="269.09448"
         sodipodi:cx="305"
         id="path4037-3-0"
         style="fill:#000000;fill-opacity:1;stroke:#000000;stroke-opacity:1"
         sodipodi:type="arc" />
      <path
         sodipodi:open="true"
         sodipodi:end="6.259954"
         sodipodi:start="0"
         transform="matrix(0.99999638,0,0,1.000004,240.00109,338.26662)"
         d="m 310,269.09448 a 5,5 0 1 1 -0.001,-0.11614"
         sodipodi:ry="5"
         sodipodi:rx="5"
         sodipodi:cy="269.09448"
         sodipodi:cx="305"
         id="path4037-6"
         style="fill:#000000;fill-opacity:1;stroke:#000000;stroke-opacity:1"
         sodipodi:type="arc" />
      <path
         sodipodi:nodetypes="cssssssc"
         inkscape:connector-curvature="0"
         id="path4126"
         d="m 583.28269,656.35841 c 0,0 15.74404,-9.02942 22.87995,-14.076 5.04586,-3.56842 8.22693,-8.42745 14.02041,-11.4036 2.59091,-1.33098 5.65935,-2.62227 8.85956,-2.67238 2.26285,-0.0356 4.67455,0.61493 6.2791,1.69325 2.26918,1.525 4.2025,3.87257 3.69869,6.05888 -1.12655,4.88875 -8.00351,8.64978 -14.0204,11.40362 -12.18326,5.57611 -41.71731,8.99623 -41.71731,8.99623 z"
         style="fill:#000000;fill-opacity:1;stroke:#000000;stroke-width:1.12750328px;stroke-linecap:butt;stroke-linejoin:miter;stroke-opacity:1" />
      <path
         sodipodi:nodetypes="cssssssc"
         inkscape:connector-curvature="0"
         id="path4126-2"
         d="m 538.99623,574.07949 c 0,0 -9.02942,-15.74404 -14.076,-22.87995 -3.56842,-5.04586 -8.42745,-8.22693 -11.4036,-14.02041 -1.33098,-2.59091 -2.62227,-5.65935 -2.67238,-8.85956 -0.0356,-2.26285 0.61493,-4.67455 1.69325,-6.2791 1.525,-2.26918 3.87257,-4.2025 6.05888,-3.69869 4.88875,1.12655 8.64978,8.00351 11.40362,14.0204 5.57611,12.18326 8.99623,41.71731 8.99623,41.71731 z"
         style="fill:#000000;fill-opacity:1;stroke:#000000;stroke-width:1.12750328px;stroke-linecap:butt;stroke-linejoin:miter;stroke-opacity:1" />
      <path
         sodipodi:nodetypes="cssssssc"
         inkscape:connector-curvature="0"
         id="path4126-6"
         d="m 457.87995,618.28618 c 0,0 -15.74404,9.02942 -22.87995,14.076 -5.04586,3.56842 -8.22693,8.42745 -14.02041,11.4036 -2.59091,1.33098 -5.65935,2.62227 -8.85956,2.67238 -2.26285,0.0356 -4.67455,-0.61493 -6.2791,-1.69325 -2.26918,-1.525 -4.2025,-3.87257 -3.69869,-6.05888 1.12655,-4.88875 8.00351,-8.64978 14.0204,-11.40362 12.18326,-5.57611 41.71731,-8.99623 41.71731,-8.99623 z"
         style="fill:#000000;fill-opacity:1;stroke:#000000;stroke-width:1.12750328px;stroke-linecap:butt;stroke-linejoin:miter;stroke-opacity:1" />
      <path
         sodipodi:nodetypes="cssssssc"
         inkscape:connector-curvature="0"
         id="path4126-1"
         d="m 500.924,699.48223 c 0,0 9.02942,15.74404 14.076,22.87995 3.56842,5.04586 8.42745,8.22693 11.4036,14.02041 1.33098,2.59091 2.62227,5.65935 2.67238,8.85956 0.0356,2.26285 -0.61493,4.67455 -1.69325,6.2791 -1.525,2.26918 -3.87257,4.2025 -6.05888,3.69869 -4.88875,-1.12655 -8.64978,-8.00351 -11.40362,-14.0204 -5.57611,-12.18326 -8.99623,-41.71731 -8.99623,-41.71731 z"
         style="fill:#000000;fill-opacity:1;stroke:#000000;stroke-width:1.12750328px;stroke-linecap:butt;stroke-linejoin:miter;stroke-opacity:1" />
      <path
         sodipodi:nodetypes="cssssssc"
         inkscape:connector-curvature="0"
         id="path4126-8"
         d="m 586.54758,595.69231 c 0,0 -3.19296,-17.86646 -5.53834,-26.28598 -1.65838,-5.95349 -5.1605,-10.58648 -6.00924,-17.04415 -0.37958,-2.88795 -0.5608,-6.21209 0.47092,-9.24184 0.72937,-2.14237 2.15489,-4.19357 3.71102,-5.34065 2.20074,-1.6222 5.06266,-2.6509 6.95113,-1.43951 4.22275,2.70877 5.44514,10.4511 6.00927,17.04415 1.14228,13.34991 -5.59476,42.30798 -5.59476,42.30798 z"
         style="fill:#000000;fill-opacity:1;stroke:#000000;stroke-width:1.12750328px;stroke-linecap:butt;stroke-linejoin:miter;stroke-opacity:1" />
      <path
         sodipodi:nodetypes="cssssssc"
         inkscape:connector-curvature="0"
         id="path4126-8-7"
         d="m 472.30798,572.95694 c 0,0 -17.86646,3.19296 -26.28598,5.53834 -5.95349,1.65838 -10.58648,5.1605 -17.04415,6.00924 -2.88795,0.37958 -6.21209,0.5608 -9.24184,-0.47092 -2.14237,-0.72937 -4.19357,-2.15489 -5.34065,-3.71102 -1.6222,-2.20074 -2.6509,-5.06266 -1.43951,-6.95113 2.70877,-4.22275 10.4511,-5.44514 17.04415,-6.00927 13.34991,-1.14228 42.30798,5.59476 42.30798,5.59476 z"
         style="fill:#000000;fill-opacity:1;stroke:#000000;stroke-width:1.12750328px;stroke-linecap:butt;stroke-linejoin:miter;stroke-opacity:1" />
      <path
         sodipodi:nodetypes="cssssssc"
         inkscape:connector-curvature="0"
         id="path4126-8-9"
         d="m 453.45242,684.03205 c 0,0 3.19296,17.86646 5.53834,26.28598 1.65838,5.95349 5.1605,10.58648 6.00924,17.04415 0.37958,2.88795 0.5608,6.21209 -0.47092,9.24184 -0.72937,2.14237 -2.15489,4.19357 -3.71102,5.34065 -2.20074,1.6222 -5.06266,2.6509 -6.95113,1.43951 -4.22275,-2.70877 -5.44514,-10.4511 -6.00927,-17.04415 -1.14228,-13.34991 5.59476,-42.30798 5.59476,-42.30798 z"
         style="fill:#000000;fill-opacity:1;stroke:#000000;stroke-width:1.12750328px;stroke-linecap:butt;stroke-linejoin:miter;stroke-opacity:1" />
      <path
         sodipodi:nodetypes="cssssssc"
         inkscape:connector-curvature="0"
         id="path4126-8-2"
         d="m 568.71402,702.90052 c 0,0 17.86646,-3.19296 26.28598,-5.53834 5.95349,-1.65838 10.58648,-5.1605 17.04415,-6.00924 2.88795,-0.37958 6.21209,-0.5608 9.24184,0.47092 2.14237,0.72937 4.19357,2.15489 5.34065,3.71102 1.6222,2.20074 2.6509,5.06266 1.43951,6.95113 -2.70877,4.22275 -10.4511,5.44514 -17.04415,6.00927 -13.34991,1.14228 -42.30798,-5.59476 -42.30798,-5.59476 z"
         style="fill:#000000;fill-opacity:1;stroke:#000000;stroke-width:1.12750328px;stroke-linecap:butt;stroke-linejoin:miter;stroke-opacity:1" />
    </g>
  </g>
</svg>
