<?xml version="1.0" encoding="UTF-8" standalone="no"?>
<!-- Created with Inkscape (http://www.inkscape.org/) -->

<svg
   xmlns:dc="http://purl.org/dc/elements/1.1/"
   xmlns:cc="http://creativecommons.org/ns#"
   xmlns:rdf="http://www.w3.org/1999/02/22-rdf-syntax-ns#"
   xmlns:svg="http://www.w3.org/2000/svg"
   xmlns="http://www.w3.org/2000/svg"
   xmlns:sodipodi="http://sodipodi.sourceforge.net/DTD/sodipodi-0.dtd"
   xmlns:inkscape="http://www.inkscape.org/namespaces/inkscape"
   width="1122.5197"
   height="793.70081"
   id="svg2"
   version="1.1"
   inkscape:version="0.92.0 r15299"
   sodipodi:docname="blacklotus.svg">
  <defs
     id="defs4" />
  <sodipodi:namedview
     id="base"
     pagecolor="#ffffff"
     bordercolor="#666666"
     borderopacity="1.0"
     inkscape:pageopacity="0.0"
     inkscape:pageshadow="2"
     inkscape:zoom="1"
     inkscape:cx="229.20846"
     inkscape:cy="407.70083"
     inkscape:document-units="px"
     inkscape:current-layer="layer1"
     showgrid="true"
     inkscape:window-width="1920"
     inkscape:window-height="1017"
     inkscape:window-x="-8"
     inkscape:window-y="-8"
     inkscape:window-maximized="1">
    <inkscape:grid
       type="xygrid"
       id="grid2985"
       empspacing="5"
       visible="true"
       enabled="true"
       snapvisiblegridlinesonly="false"
       originx="0"
       originy="0"
       spacingx="1.0666667"
       spacingy="1.0666667" />
  </sodipodi:namedview>
  <metadata
     id="metadata7">
    <rdf:RDF>
      <cc:Work
         rdf:about="">
        <dc:format>image/svg+xml</dc:format>
        <dc:type
           rdf:resource="http://purl.org/dc/dcmitype/StillImage" />
        <dc:title />
      </cc:Work>
    </rdf:RDF>
  </metadata>
  <g
     inkscape:label="Livello 1"
     inkscape:groupmode="layer"
     id="layer1"
     transform="translate(0,-328.81888)">
    <g
       id="g4590"
       inkscape:export-xdpi="222"
       inkscape:export-ydpi="222">
      <g
         id="g4508">
        <g
           id="g4224"
           transform="translate(147.21604,99.287735)">
          <g
             id="g4221">
            <path
               style="fill:#000000;fill-opacity:1;stroke:#000000;stroke-width:0.90495139;stroke-miterlimit:4;stroke-dasharray:none;stroke-opacity:1"
               d="m 405.8,386.98555 c -88.11567,0 -159.56667,71.41767 -159.56667,159.53333 0,2.92297 0.0773,5.81871 0.23334,8.7 l -0.0667,-0.16667 -39.4,-52.6 -0.8,0.46667 c -5.0896,9.22494 -9.32816,19.08959 -12.6,29.53333 -26.3426,84.08591 20.44746,173.59073 104.53333,199.93334 1.43992,0.45109 2.8922,0.89266 4.33334,1.3 l -61.1,19.4 0.16666,0.86666 c 7.03464,7.8433 14.94933,15.1051 23.73334,21.63334 70.72286,52.56089 170.67244,37.8562 223.23333,-32.86667 1.81063,-2.43627 3.55092,-4.89932 5.2,-7.4 l -0.63333,1.93333 -0.36667,65.73334 0.9,0.0999 c 9.62826,-4.27788 18.95094,-9.58615 27.86667,-15.93333 71.7833,-51.10313 88.56979,-150.7167 37.46666,-222.5 -2.30378,-3.23607 -4.70599,-6.35538 -7.2,-9.36667 l -0.0667,0.23334 c -0.0764,-0.23351 -0.15585,-0.46698 -0.23334,-0.7 l 3.23334,2.36666 62.33333,20.83334 0.36667,-0.83334 c -1.0627,-10.48203 -3.18233,-20.98303 -6.43334,-31.43328 C 584.75845,461.61394 495.33826,414.61067 411.2,440.78555 c -3.79306,1.18 -7.49456,2.46919 -11.13333,3.9 l 1.33333,0.96666 c -0.46537,-0.004 -0.9337,0 -1.4,0 -0.68845,0 -1.38028,0.0246 -2.06667,0.0333 L 400,444.11883 l 38.4,-53.33334 -0.66667,-0.6 c -10.3246,-2.09898 -20.98907,-3.2 -31.93333,-3.2 z m -5.8,61.4 c 86.44002,0 156.5,69.93899 156.5,156.2 0,86.261 -70.05998,156.16666 -156.5,156.16666 -86.44002,0 -156.5,-69.90566 -156.5,-156.16666 0,-86.26101 70.05998,-156.2 156.5,-156.2 z M 247.7,557.51888 c -0.0691,0.22107 -0.13181,0.44519 -0.2,0.66667 l -0.13333,-0.4 z"
               id="path2989-5"
               inkscape:connector-curvature="0" />
          </g>
        </g>
        <g
           transform="translate(147.21604,99.287735)"
           id="g4234"
           style="opacity:1"
           inkscape:export-xdpi="222.31375"
           inkscape:export-ydpi="222.31375">
          <g
             id="g4236">
            <path
               inkscape:connector-curvature="0"
               id="path4238"
               d="m 405.8,386.98555 c -88.11567,0 -159.56667,71.41767 -159.56667,159.53333 0,2.92297 0.0773,5.81871 0.23334,8.7 l -0.0667,-0.16667 -39.4,-52.6 -0.8,0.46667 c -5.0896,9.22494 -9.32816,19.08959 -12.6,29.53333 -26.3426,84.08591 20.44746,173.59073 104.53333,199.93334 1.43992,0.45109 2.8922,0.89266 4.33334,1.3 l -61.1,19.4 0.16666,0.86666 c 7.03464,7.8433 14.94933,15.1051 23.73334,21.63334 70.72286,52.56089 170.67244,37.8562 223.23333,-32.86667 1.81063,-2.43627 3.55092,-4.89932 5.2,-7.4 l -0.63333,1.93333 -0.36667,65.73334 0.9,0.0999 c 9.62826,-4.27788 18.95094,-9.58615 27.86667,-15.93333 71.7833,-51.10313 88.56979,-150.7167 37.46666,-222.5 -2.30378,-3.23607 -4.70599,-6.35538 -7.2,-9.36667 l -0.0667,0.23334 c -0.0764,-0.23351 -0.15585,-0.46698 -0.23334,-0.7 l 3.23334,2.36666 62.33333,20.83334 0.36667,-0.83334 c -1.0627,-10.48203 -3.18233,-20.98303 -6.43334,-31.43328 C 584.75845,461.61394 495.33826,414.61067 411.2,440.78555 c -3.79306,1.18 -7.49456,2.46919 -11.13333,3.9 l 1.33333,0.96666 c -0.46537,-0.004 -0.9337,0 -1.4,0 -0.68845,0 -1.38028,0.0246 -2.06667,0.0333 L 400,444.11883 l 38.4,-53.33334 -0.66667,-0.6 c -10.3246,-2.09898 -20.98907,-3.2 -31.93333,-3.2 z m -5.8,61.4 c 86.44002,0 156.5,69.93899 156.5,156.2 0,86.261 -70.05998,156.16666 -156.5,156.16666 -86.44002,0 -156.5,-69.90566 -156.5,-156.16666 0,-86.26101 70.05998,-156.2 156.5,-156.2 z M 247.7,557.51888 c -0.0691,0.22107 -0.13181,0.44519 -0.2,0.66667 l -0.13333,-0.4 z"
               style="fill:#000000;fill-opacity:1;stroke:#000000;stroke-width:0.90495139;stroke-miterlimit:4;stroke-dasharray:none;stroke-opacity:1" />
          </g>
        </g>
        <g
           id="g2995"
           transform="matrix(-0.5431791,0,0,0.55739983,765.23808,367.78623)"
           style="fill:#333333;fill-opacity:0.94117647">
          <g
             id="g2997"
             style="fill:#333333;fill-opacity:0.94117647">
            <path
               style="fill:#333333;fill-opacity:0.94117647;stroke:#000000;stroke-width:0.90495139;stroke-miterlimit:4;stroke-dasharray:none;stroke-opacity:1"
               d="m 405.8,386.98555 c -88.11567,0 -159.56667,71.41767 -159.56667,159.53333 0,2.92297 0.0773,5.81871 0.23334,8.7 l -0.0667,-0.16667 -39.4,-52.6 -0.8,0.46667 c -5.0896,9.22494 -9.32816,19.08959 -12.6,29.53333 -26.3426,84.08591 20.44746,173.59073 104.53333,199.93334 1.43992,0.45109 2.8922,0.89266 4.33334,1.3 l -61.1,19.4 0.16666,0.86666 c 7.03464,7.8433 14.94933,15.1051 23.73334,21.63334 70.72286,52.56089 170.67244,37.8562 223.23333,-32.86667 1.81063,-2.43627 3.55092,-4.89932 5.2,-7.4 l -0.63333,1.93333 -0.36667,65.73334 0.9,0.0999 c 9.62826,-4.27788 18.95094,-9.58615 27.86667,-15.93333 71.7833,-51.10313 88.56979,-150.7167 37.46666,-222.5 -2.30378,-3.23607 -4.70599,-6.35538 -7.2,-9.36667 l -0.0667,0.23334 c -0.0764,-0.23351 -0.15585,-0.46698 -0.23334,-0.7 l 3.23334,2.36666 62.33333,20.83334 0.36667,-0.83334 c -1.0627,-10.48203 -3.18233,-20.98303 -6.43334,-31.43328 C 584.75845,461.61394 495.33826,414.61067 411.2,440.78555 c -3.79306,1.18 -7.49456,2.46919 -11.13333,3.9 l 1.33333,0.96666 c -0.46537,-0.004 -0.9337,0 -1.4,0 -0.68845,0 -1.38028,0.0246 -2.06667,0.0333 L 400,444.11883 l 38.4,-53.33334 -0.66667,-0.6 c -10.3246,-2.09898 -20.98907,-3.2 -31.93333,-3.2 z m -5.8,61.4 c 86.44002,0 156.5,69.93899 156.5,156.2 0,86.261 -70.05998,156.16666 -156.5,156.16666 -86.44002,0 -156.5,-69.90566 -156.5,-156.16666 0,-86.26101 70.05998,-156.2 156.5,-156.2 z M 247.7,557.51888 c -0.0691,0.22107 -0.13181,0.44519 -0.2,0.66667 l -0.13333,-0.4 z"
               id="path2999"
               inkscape:connector-curvature="0" />
          </g>
        </g>
        <g
           transform="matrix(0.19751967,0,0,0.20269085,469.66702,580.9833)"
           id="g3001"
           style="fill:#c0c0c0;fill-opacity:0.94117647">
          <g
             id="g3003"
             style="fill:#c0c0c0;fill-opacity:0.94117647">
            <path
               inkscape:connector-curvature="0"
               id="path3005"
               d="m 405.8,386.98555 c -88.11567,0 -159.56667,71.41767 -159.56667,159.53333 0,2.92297 0.0773,5.81871 0.23334,8.7 l -0.0667,-0.16667 -39.4,-52.6 -0.8,0.46667 c -5.0896,9.22494 -9.32816,19.08959 -12.6,29.53333 -26.3426,84.08591 20.44746,173.59073 104.53333,199.93334 1.43992,0.45109 2.8922,0.89266 4.33334,1.3 l -61.1,19.4 0.16666,0.86666 c 7.03464,7.8433 14.94933,15.1051 23.73334,21.63334 70.72286,52.56089 170.67244,37.8562 223.23333,-32.86667 1.81063,-2.43627 3.55092,-4.89932 5.2,-7.4 l -0.63333,1.93333 -0.36667,65.73334 0.9,0.0999 c 9.62826,-4.27788 18.95094,-9.58615 27.86667,-15.93333 71.7833,-51.10313 88.56979,-150.7167 37.46666,-222.5 -2.30378,-3.23607 -4.70599,-6.35538 -7.2,-9.36667 l -0.0667,0.23334 c -0.0764,-0.23351 -0.15585,-0.46698 -0.23334,-0.7 l 3.23334,2.36666 62.33333,20.83334 0.36667,-0.83334 c -1.0627,-10.48203 -3.18233,-20.98303 -6.43334,-31.43328 C 584.75845,461.61394 495.33826,414.61067 411.2,440.78555 c -3.79306,1.18 -7.49456,2.46919 -11.13333,3.9 l 1.33333,0.96666 c -0.46537,-0.004 -0.9337,0 -1.4,0 -0.68845,0 -1.38028,0.0246 -2.06667,0.0333 L 400,444.11883 l 38.4,-53.33334 -0.66667,-0.6 c -10.3246,-2.09898 -20.98907,-3.2 -31.93333,-3.2 z m -5.8,61.4 c 86.44002,0 156.5,69.93899 156.5,156.2 0,86.261 -70.05998,156.16666 -156.5,156.16666 -86.44002,0 -156.5,-69.90566 -156.5,-156.16666 0,-86.26101 70.05998,-156.2 156.5,-156.2 z M 247.7,557.51888 c -0.0691,0.22107 -0.13181,0.44519 -0.2,0.66667 l -0.13333,-0.4 z"
               style="fill:#c0c0c0;fill-opacity:0.94117647;stroke:#000000;stroke-width:0.90495139;stroke-miterlimit:4;stroke-dasharray:none;stroke-opacity:1" />
          </g>
        </g>
      </g>
      <g
         id="g4523">
        <path
           style="fill:#000000;fill-opacity:0.94117647;stroke:#000000;stroke-width:0.11687683;stroke-miterlimit:4;stroke-dasharray:none;stroke-opacity:1"
           d="m 607.38002,495.73968 c -0.29694,-0.0913 -1.42924,5.36469 -2.8527,6.2743 -3.07645,1.96589 -11.55874,6.60478 -11.09377,7.77436 l 0.0469,0.0271 a 8.9973545,7.4616714 29.565761 0 0 4.16541,10.88792 8.9973545,7.4616714 29.565761 0 0 11.42083,-1.91703 l 0.13238,0.0762 c 0,0 0.14769,-0.42571 0.36528,-1.11774 a 8.9973545,7.4616714 29.565761 0 0 0.21012,-0.68497 c 0.68642,-2.27602 1.7237,-6.18736 1.5693,-8.61382 -0.53466,-8.40239 -3.95053,-12.70148 -3.95025,-12.69779 -0.004,-0.005 -0.009,-0.007 -0.0135,-0.009 z"
           id="path4510"
           inkscape:connector-curvature="0" />
        <path
           inkscape:connector-curvature="0"
           id="path4516"
           d="m 645.21642,501.07274 c -0.17981,-0.0665 -0.86543,3.90542 -1.72736,4.56761 -1.86283,1.43114 -6.99898,4.80819 -6.71744,5.65962 l 0.0284,0.0197 a 5.9643732,4.9617416 59.595968 0 0 2.52222,7.92626 5.9643732,4.9617416 59.595968 0 0 6.91548,-1.39557 l 0.0802,0.0555 c 0,0 0.0894,-0.30991 0.22118,-0.8137 a 5.9643732,4.9617416 59.595968 0 0 0.12723,-0.49865 c 0.41564,-1.65691 1.04373,-4.50431 0.95024,-6.27074 -0.32375,-6.11683 -2.39211,-9.2465 -2.39194,-9.24382 -0.002,-0.004 -0.005,-0.005 -0.008,-0.007 z"
           style="fill:#000000;fill-opacity:0.94117647;stroke:#000000;stroke-width:0.07759834;stroke-miterlimit:4;stroke-dasharray:none;stroke-opacity:1" />
        <path
           style="fill:#000000;fill-opacity:0.94117647;stroke:#000000;stroke-width:0.05892939;stroke-miterlimit:4;stroke-dasharray:none;stroke-opacity:1"
           d="m 677.99247,509.41972 c -0.12803,-0.0539 -0.61619,3.16337 -1.22988,3.69974 -1.32633,1.15921 -4.98325,3.8946 -4.78279,4.58425 l 0.0202,0.016 a 4.7322525,3.606535 72.008391 0 0 1.79581,6.42021 4.7322525,3.606535 72.008391 0 0 4.9238,-1.1304 l 0.0571,0.045 c 0,0 0.0636,-0.25103 0.15748,-0.6591 a 4.7322525,3.606535 72.008391 0 0 0.0906,-0.4039 c 0.29593,-1.34208 0.74313,-3.64846 0.67656,-5.07926 -0.2305,-4.95459 -1.70317,-7.4896 -1.70305,-7.48743 -10e-4,-0.003 -0.004,-0.004 -0.006,-0.006 z"
           id="path4518"
           inkscape:connector-curvature="0" />
      </g>
      <g
         transform="rotate(75.130437,553.21156,703.01048)"
         id="g4531">
        <path
           inkscape:connector-curvature="0"
           id="path4525"
           d="m 607.38002,495.73968 c -0.29694,-0.0913 -1.42924,5.36469 -2.8527,6.2743 -3.07645,1.96589 -11.55874,6.60478 -11.09377,7.77436 l 0.0469,0.0271 a 8.9973545,7.4616714 29.565761 0 0 4.16541,10.88792 8.9973545,7.4616714 29.565761 0 0 11.42083,-1.91703 l 0.13238,0.0762 c 0,0 0.14769,-0.42571 0.36528,-1.11774 a 8.9973545,7.4616714 29.565761 0 0 0.21012,-0.68497 c 0.68642,-2.27602 1.7237,-6.18736 1.5693,-8.61382 -0.53466,-8.40239 -3.95053,-12.70148 -3.95025,-12.69779 -0.004,-0.005 -0.009,-0.007 -0.0135,-0.009 z"
           style="fill:#000000;fill-opacity:0.94117647;stroke:#000000;stroke-width:0.11687683;stroke-miterlimit:4;stroke-dasharray:none;stroke-opacity:1" />
        <path
           style="fill:#000000;fill-opacity:0.94117647;stroke:#000000;stroke-width:0.07759834;stroke-miterlimit:4;stroke-dasharray:none;stroke-opacity:1"
           d="m 645.21642,501.07274 c -0.17981,-0.0665 -0.86543,3.90542 -1.72736,4.56761 -1.86283,1.43114 -6.99898,4.80819 -6.71744,5.65962 l 0.0284,0.0197 a 5.9643732,4.9617416 59.595968 0 0 2.52222,7.92626 5.9643732,4.9617416 59.595968 0 0 6.91548,-1.39557 l 0.0802,0.0555 c 0,0 0.0894,-0.30991 0.22118,-0.8137 a 5.9643732,4.9617416 59.595968 0 0 0.12723,-0.49865 c 0.41564,-1.65691 1.04373,-4.50431 0.95024,-6.27074 -0.32375,-6.11683 -2.39211,-9.2465 -2.39194,-9.24382 -0.002,-0.004 -0.005,-0.005 -0.008,-0.007 z"
           id="path4527"
           inkscape:connector-curvature="0" />
        <path
           inkscape:connector-curvature="0"
           id="path4529"
           d="m 677.99247,509.41972 c -0.12803,-0.0539 -0.61619,3.16337 -1.22988,3.69974 -1.32633,1.15921 -4.98325,3.8946 -4.78279,4.58425 l 0.0202,0.016 a 4.7322525,3.606535 72.008391 0 0 1.79581,6.42021 4.7322525,3.606535 72.008391 0 0 4.9238,-1.1304 l 0.0571,0.045 c 0,0 0.0636,-0.25103 0.15748,-0.6591 a 4.7322525,3.606535 72.008391 0 0 0.0906,-0.4039 c 0.29593,-1.34208 0.74313,-3.64846 0.67656,-5.07926 -0.2305,-4.95459 -1.70317,-7.4896 -1.70305,-7.48743 -10e-4,-0.003 -0.004,-0.004 -0.006,-0.006 z"
           style="fill:#000000;fill-opacity:0.94117647;stroke:#000000;stroke-width:0.05892939;stroke-miterlimit:4;stroke-dasharray:none;stroke-opacity:1" />
      </g>
      <g
         transform="rotate(148.12722,555.3768,705.09615)"
         id="g4539">
        <path
           inkscape:connector-curvature="0"
           id="path4533"
           d="m 607.38002,495.73968 c -0.29694,-0.0913 -1.42924,5.36469 -2.8527,6.2743 -3.07645,1.96589 -11.55874,6.60478 -11.09377,7.77436 l 0.0469,0.0271 a 8.9973545,7.4616714 29.565761 0 0 4.16541,10.88792 8.9973545,7.4616714 29.565761 0 0 11.42083,-1.91703 l 0.13238,0.0762 c 0,0 0.14769,-0.42571 0.36528,-1.11774 a 8.9973545,7.4616714 29.565761 0 0 0.21012,-0.68497 c 0.68642,-2.27602 1.7237,-6.18736 1.5693,-8.61382 -0.53466,-8.40239 -3.95053,-12.70148 -3.95025,-12.69779 -0.004,-0.005 -0.009,-0.007 -0.0135,-0.009 z"
           style="fill:#000000;fill-opacity:0.94117647;stroke:#000000;stroke-width:0.11687683;stroke-miterlimit:4;stroke-dasharray:none;stroke-opacity:1" />
        <path
           style="fill:#000000;fill-opacity:0.94117647;stroke:#000000;stroke-width:0.07759834;stroke-miterlimit:4;stroke-dasharray:none;stroke-opacity:1"
           d="m 645.21642,501.07274 c -0.17981,-0.0665 -0.86543,3.90542 -1.72736,4.56761 -1.86283,1.43114 -6.99898,4.80819 -6.71744,5.65962 l 0.0284,0.0197 a 5.9643732,4.9617416 59.595968 0 0 2.52222,7.92626 5.9643732,4.9617416 59.595968 0 0 6.91548,-1.39557 l 0.0802,0.0555 c 0,0 0.0894,-0.30991 0.22118,-0.8137 a 5.9643732,4.9617416 59.595968 0 0 0.12723,-0.49865 c 0.41564,-1.65691 1.04373,-4.50431 0.95024,-6.27074 -0.32375,-6.11683 -2.39211,-9.2465 -2.39194,-9.24382 -0.002,-0.004 -0.005,-0.005 -0.008,-0.007 z"
           id="path4535"
           inkscape:connector-curvature="0" />
        <path
           inkscape:connector-curvature="0"
           id="path4537"
           d="m 677.99247,509.41972 c -0.12803,-0.0539 -0.61619,3.16337 -1.22988,3.69974 -1.32633,1.15921 -4.98325,3.8946 -4.78279,4.58425 l 0.0202,0.016 a 4.7322525,3.606535 72.008391 0 0 1.79581,6.42021 4.7322525,3.606535 72.008391 0 0 4.9238,-1.1304 l 0.0571,0.045 c 0,0 0.0636,-0.25103 0.15748,-0.6591 a 4.7322525,3.606535 72.008391 0 0 0.0906,-0.4039 c 0.29593,-1.34208 0.74313,-3.64846 0.67656,-5.07926 -0.2305,-4.95459 -1.70317,-7.4896 -1.70305,-7.48743 -10e-4,-0.003 -0.004,-0.004 -0.006,-0.006 z"
           style="fill:#000000;fill-opacity:0.94117647;stroke:#000000;stroke-width:0.05892939;stroke-miterlimit:4;stroke-dasharray:none;stroke-opacity:1" />
      </g>
      <g
         transform="rotate(-135.39997,559.05907,713.59353)"
         id="g4547">
        <path
           inkscape:connector-curvature="0"
           id="path4541"
           d="m 607.38002,495.73968 c -0.29694,-0.0913 -1.42924,5.36469 -2.8527,6.2743 -3.07645,1.96589 -11.55874,6.60478 -11.09377,7.77436 l 0.0469,0.0271 a 8.9973545,7.4616714 29.565761 0 0 4.16541,10.88792 8.9973545,7.4616714 29.565761 0 0 11.42083,-1.91703 l 0.13238,0.0762 c 0,0 0.14769,-0.42571 0.36528,-1.11774 a 8.9973545,7.4616714 29.565761 0 0 0.21012,-0.68497 c 0.68642,-2.27602 1.7237,-6.18736 1.5693,-8.61382 -0.53466,-8.40239 -3.95053,-12.70148 -3.95025,-12.69779 -0.004,-0.005 -0.009,-0.007 -0.0135,-0.009 z"
           style="fill:#000000;fill-opacity:0.94117647;stroke:#000000;stroke-width:0.11687683;stroke-miterlimit:4;stroke-dasharray:none;stroke-opacity:1" />
        <path
           style="fill:#000000;fill-opacity:0.94117647;stroke:#000000;stroke-width:0.07759834;stroke-miterlimit:4;stroke-dasharray:none;stroke-opacity:1"
           d="m 645.21642,501.07274 c -0.17981,-0.0665 -0.86543,3.90542 -1.72736,4.56761 -1.86283,1.43114 -6.99898,4.80819 -6.71744,5.65962 l 0.0284,0.0197 a 5.9643732,4.9617416 59.595968 0 0 2.52222,7.92626 5.9643732,4.9617416 59.595968 0 0 6.91548,-1.39557 l 0.0802,0.0555 c 0,0 0.0894,-0.30991 0.22118,-0.8137 a 5.9643732,4.9617416 59.595968 0 0 0.12723,-0.49865 c 0.41564,-1.65691 1.04373,-4.50431 0.95024,-6.27074 -0.32375,-6.11683 -2.39211,-9.2465 -2.39194,-9.24382 -0.002,-0.004 -0.005,-0.005 -0.008,-0.007 z"
           id="path4543"
           inkscape:connector-curvature="0" />
        <path
           inkscape:connector-curvature="0"
           id="path4545"
           d="m 677.99247,509.41972 c -0.12803,-0.0539 -0.61619,3.16337 -1.22988,3.69974 -1.32633,1.15921 -4.98325,3.8946 -4.78279,4.58425 l 0.0202,0.016 a 4.7322525,3.606535 72.008391 0 0 1.79581,6.42021 4.7322525,3.606535 72.008391 0 0 4.9238,-1.1304 l 0.0571,0.045 c 0,0 0.0636,-0.25103 0.15748,-0.6591 a 4.7322525,3.606535 72.008391 0 0 0.0906,-0.4039 c 0.29593,-1.34208 0.74313,-3.64846 0.67656,-5.07926 -0.2305,-4.95459 -1.70317,-7.4896 -1.70305,-7.48743 -10e-4,-0.003 -0.004,-0.004 -0.006,-0.006 z"
           style="fill:#000000;fill-opacity:0.94117647;stroke:#000000;stroke-width:0.05892939;stroke-miterlimit:4;stroke-dasharray:none;stroke-opacity:1" />
      </g>
      <g
         transform="rotate(-77.655166,543.46518,690.55251)"
         id="g4555">
        <path
           inkscape:connector-curvature="0"
           id="path4549"
           d="m 607.38002,495.73968 c -0.29694,-0.0913 -1.42924,5.36469 -2.8527,6.2743 -3.07645,1.96589 -11.55874,6.60478 -11.09377,7.77436 l 0.0469,0.0271 a 8.9973545,7.4616714 29.565761 0 0 4.16541,10.88792 8.9973545,7.4616714 29.565761 0 0 11.42083,-1.91703 l 0.13238,0.0762 c 0,0 0.14769,-0.42571 0.36528,-1.11774 a 8.9973545,7.4616714 29.565761 0 0 0.21012,-0.68497 c 0.68642,-2.27602 1.7237,-6.18736 1.5693,-8.61382 -0.53466,-8.40239 -3.95053,-12.70148 -3.95025,-12.69779 -0.004,-0.005 -0.009,-0.007 -0.0135,-0.009 z"
           style="fill:#000000;fill-opacity:0.94117647;stroke:#000000;stroke-width:0.11687683;stroke-miterlimit:4;stroke-dasharray:none;stroke-opacity:1" />
        <path
           style="fill:#000000;fill-opacity:0.94117647;stroke:#000000;stroke-width:0.07759834;stroke-miterlimit:4;stroke-dasharray:none;stroke-opacity:1"
           d="m 645.21642,501.07274 c -0.17981,-0.0665 -0.86543,3.90542 -1.72736,4.56761 -1.86283,1.43114 -6.99898,4.80819 -6.71744,5.65962 l 0.0284,0.0197 a 5.9643732,4.9617416 59.595968 0 0 2.52222,7.92626 5.9643732,4.9617416 59.595968 0 0 6.91548,-1.39557 l 0.0802,0.0555 c 0,0 0.0894,-0.30991 0.22118,-0.8137 a 5.9643732,4.9617416 59.595968 0 0 0.12723,-0.49865 c 0.41564,-1.65691 1.04373,-4.50431 0.95024,-6.27074 -0.32375,-6.11683 -2.39211,-9.2465 -2.39194,-9.24382 -0.002,-0.004 -0.005,-0.005 -0.008,-0.007 z"
           id="path4551"
           inkscape:connector-curvature="0" />
        <path
           inkscape:connector-curvature="0"
           id="path4553"
           d="m 677.99247,509.41972 c -0.12803,-0.0539 -0.61619,3.16337 -1.22988,3.69974 -1.32633,1.15921 -4.98325,3.8946 -4.78279,4.58425 l 0.0202,0.016 a 4.7322525,3.606535 72.008391 0 0 1.79581,6.42021 4.7322525,3.606535 72.008391 0 0 4.9238,-1.1304 l 0.0571,0.045 c 0,0 0.0636,-0.25103 0.15748,-0.6591 a 4.7322525,3.606535 72.008391 0 0 0.0906,-0.4039 c 0.29593,-1.34208 0.74313,-3.64846 0.67656,-5.07926 -0.2305,-4.95459 -1.70317,-7.4896 -1.70305,-7.48743 -10e-4,-0.003 -0.004,-0.004 -0.006,-0.006 z"
           style="fill:#000000;fill-opacity:0.94117647;stroke:#000000;stroke-width:0.05892939;stroke-miterlimit:4;stroke-dasharray:none;stroke-opacity:1" />
      </g>
    </g>
  </g>
</svg>
